<?xml version="1.0" encoding="UTF-8"?>
<svg id="_Слой_1" data-name="Слой 1" xmlns="http://www.w3.org/2000/svg" viewBox="0 0 281.51 74.1">
  <defs>
    <style>
      .cls-1 {
        fill: #1d1d1b;
      }

      .cls-2 {
        fill: #e85c0d;
      }
    </style>
  </defs>
  <g>
    <path class="cls-1" d="M96.57,35.08c-1.48,0-2.84-.2-4.08-.6-1.23-.4-2.29-1.04-3.17-1.93-.88-.88-1.56-2.03-2.05-3.43-.49-1.4-.74-3.11-.74-5.13v-.59c0-1.89.26-3.52.77-4.88s1.23-2.47,2.13-3.34c.91-.86,1.97-1.5,3.2-1.91,1.22-.41,2.54-.62,3.94-.62,1.26,0,2.43.14,3.54.43,1.1.29,2.07.74,2.9,1.36s1.51,1.42,2.04,2.41.84,2.19.94,3.61h-5.74c-.1-.58-.27-1.07-.49-1.47-.23-.4-.51-.73-.83-.99-.33-.26-.7-.44-1.1-.56-.4-.11-.82-.17-1.25-.17-.62,0-1.19.11-1.71.32s-.98.57-1.36,1.05c-.38.48-.68,1.12-.9,1.9-.22.78-.32,1.73-.32,2.84v.65c0,1.19.12,2.2.35,3.01.24.81.55,1.47.94,1.98.39.5.84.86,1.36,1.08.51.22,1.06.32,1.64.32,1.05,0,1.89-.25,2.52-.76.63-.5,1.01-1.31,1.16-2.42h5.74c-.08,1.44-.38,2.66-.88,3.64-.51.99-1.17,1.79-2.01,2.41-.83.62-1.81,1.07-2.92,1.34-1.11.28-2.32.42-3.61.42Z"/>
    <path class="cls-1" d="M116.64,35.08c-1.15,0-2.23-.17-3.24-.51s-1.89-.86-2.66-1.56c-.76-.7-1.36-1.58-1.79-2.64-.43-1.06-.65-2.3-.65-3.72v-.62c0-1.34.22-2.51.65-3.52.43-1.01,1.03-1.85,1.79-2.53s1.65-1.19,2.66-1.54,2.09-.53,3.24-.53,2.23.18,3.24.53,1.89.86,2.66,1.54c.76.68,1.36,1.52,1.79,2.53.43,1.01.65,2.18.65,3.52v.62c0,1.4-.22,2.63-.65,3.69-.43,1.06-1.03,1.94-1.79,2.64-.76.7-1.65,1.23-2.66,1.58-1.01.35-2.09.53-3.24.53ZM116.64,31.16c1.11,0,1.97-.4,2.56-1.21s.9-1.91.9-3.3v-.62c0-1.24-.3-2.25-.9-3.03-.6-.78-1.45-1.17-2.56-1.17s-1.97.39-2.56,1.17c-.6.78-.9,1.79-.9,3.03v.62c0,1.43.3,2.54.9,3.33.6.79,1.45,1.18,2.56,1.18Z"/>
    <path class="cls-1" d="M127.76,18.31h4.39v2.22c.41-.72,1.06-1.34,1.93-1.85.87-.51,2.04-.77,3.5-.77,1.96,0,3.43.53,4.43,1.59,1,1.06,1.5,2.57,1.5,4.52v10.65h-4.76v-9.6c0-1.07-.23-1.88-.7-2.43-.46-.55-1.22-.82-2.27-.82-.58,0-1.07.09-1.48.26-.41.18-.75.41-1.02.7-.27.29-.46.63-.59,1.04-.12.4-.18.82-.18,1.25v9.6h-4.76v-16.37Z"/>
    <path class="cls-1" d="M153.85,35.08c-1.34,0-2.49-.14-3.44-.42-.96-.28-1.75-.66-2.36-1.14s-1.08-1.05-1.39-1.7-.48-1.34-.53-2.08h4.76c.12.47.39.88.8,1.2.41.33,1.13.49,2.16.49s1.81-.14,2.27-.43.69-.67.69-1.14c0-.19-.05-.36-.15-.51s-.29-.3-.57-.43c-.28-.13-.65-.26-1.13-.39-.47-.12-1.08-.25-1.82-.37-.91-.14-1.76-.33-2.56-.56-.8-.23-1.5-.53-2.08-.91-.59-.38-1.05-.87-1.39-1.47-.34-.6-.51-1.35-.51-2.25,0-.72.17-1.39.49-2.01.33-.62.81-1.15,1.44-1.61.63-.45,1.39-.81,2.29-1.07.9-.26,1.91-.39,3.04-.39,1.28,0,2.35.15,3.23.46s1.59.72,2.15,1.22c.56.5.97,1.08,1.23,1.71.27.64.43,1.29.49,1.95h-4.76c-.12-.53-.39-.95-.8-1.25-.41-.3-.93-.45-1.54-.45-.95,0-1.6.14-1.96.43-.36.29-.54.63-.54,1.02,0,.43.29.77.86,1,.58.24,1.49.44,2.75.6.88.12,1.73.3,2.53.52.8.23,1.51.54,2.12.94.61.4,1.09.91,1.44,1.51.35.61.53,1.34.53,2.21,0,1.56-.65,2.84-1.96,3.81-1.31.98-3.23,1.47-5.76,1.47Z"/>
    <path class="cls-1" d="M172.07,35.08c-1.15,0-2.23-.17-3.24-.51s-1.89-.86-2.66-1.56c-.76-.7-1.36-1.58-1.79-2.64-.43-1.06-.65-2.3-.65-3.72v-.62c0-1.34.22-2.51.65-3.52.43-1.01,1.03-1.85,1.79-2.53s1.65-1.19,2.66-1.54,2.09-.53,3.24-.53,2.23.18,3.24.53,1.89.86,2.66,1.54c.76.68,1.36,1.52,1.79,2.53.43,1.01.65,2.18.65,3.52v.62c0,1.4-.22,2.63-.65,3.69-.43,1.06-1.03,1.94-1.79,2.64-.76.7-1.65,1.23-2.66,1.58-1.01.35-2.09.53-3.24.53ZM172.07,31.16c1.11,0,1.97-.4,2.56-1.21s.9-1.91.9-3.3v-.62c0-1.24-.3-2.25-.9-3.03-.6-.78-1.45-1.17-2.56-1.17s-1.97.39-2.56,1.17c-.6.78-.9,1.79-.9,3.03v.62c0,1.43.3,2.54.9,3.33.6.79,1.45,1.18,2.56,1.18Z"/>
    <path class="cls-1" d="M189.05,34.87c-.99,0-1.84-.08-2.56-.25-.72-.16-1.31-.47-1.78-.91-.46-.44-.81-1.05-1.03-1.82-.23-.77-.34-1.76-.34-2.98v-15.84h4.76v15.16c0,.52.03.95.09,1.3s.17.63.32.84.37.36.66.45c.29.09.65.14,1.08.14.25,0,.45,0,.62-.02.17,0,.33-.03.49-.05v3.89c-.62.06-1.39.09-2.32.09Z"/>
    <path class="cls-1" d="M196.53,16.77c-.89,0-1.57-.23-2.05-.69-.48-.46-.73-1.06-.73-1.78s.24-1.31.73-1.78,1.17-.69,2.05-.69,1.57.23,2.05.69.73,1.06.73,1.78-.24,1.31-.73,1.78c-.48.46-1.17.69-2.05.69ZM194.15,18.31h4.76v16.37h-4.76v-16.37Z"/>
    <path class="cls-1" d="M209.03,35.08c-1.07,0-2.04-.18-2.9-.54-.86-.36-1.61-.89-2.22-1.59-.62-.7-1.09-1.58-1.42-2.62-.33-1.05-.49-2.27-.49-3.67v-.62c0-2.64.61-4.65,1.84-6.04,1.22-1.39,2.96-2.08,5.2-2.08.93,0,1.81.21,2.64.63.83.42,1.53,1.03,2.08,1.84v-7.32h4.76v21.62h-4.39v-2.22c-.21.33-.47.65-.79.97-.32.32-.7.6-1.13.85-.43.25-.92.44-1.45.59-.53.14-1.11.22-1.73.22ZM210.18,31.16c1.01,0,1.86-.35,2.55-1.05.69-.7,1.03-1.7,1.03-3v-1.54c0-1.24-.35-2.17-1.03-2.79-.69-.63-1.54-.94-2.55-.94s-1.79.34-2.39,1.03c-.61.69-.91,1.74-.91,3.17v.62c0,1.48.31,2.6.94,3.37.63.76,1.41,1.14,2.36,1.14Z"/>
    <path class="cls-1" d="M227,35.08c-.88,0-1.67-.13-2.36-.4-.69-.27-1.27-.63-1.75-1.1s-.83-1.01-1.08-1.64c-.25-.63-.37-1.31-.37-2.05,0-1.63.5-2.87,1.5-3.74,1-.86,2.51-1.3,4.52-1.3h4.66v-.68c0-.99-.24-1.67-.71-2.05-.47-.38-1.12-.57-1.94-.57s-1.36.12-1.73.37c-.37.25-.58.64-.62,1.17h-4.76c.04-.74.23-1.43.56-2.05.33-.63.8-1.17,1.41-1.64.61-.46,1.35-.83,2.24-1.1.88-.27,1.9-.4,3.06-.4,1.07,0,2.05.12,2.95.35.9.24,1.66.62,2.3,1.14.64.53,1.13,1.2,1.48,2.04.35.83.53,1.85.53,3.04v6.02c0,.86.02,1.62.06,2.27.04.65.1,1.28.18,1.9h-4.51c-.04-.35-.08-.66-.11-.93s-.05-.6-.05-.99c-.49.66-1.18,1.21-2.05,1.65s-2.01.66-3.41.66ZM228.55,31.75c1.01,0,1.86-.29,2.55-.86.69-.58,1.03-1.37,1.03-2.38v-.68h-3.74c-.7,0-1.22.19-1.56.56-.34.37-.51.8-.51,1.3,0,.6.17,1.09.51,1.48.34.39.91.59,1.71.59Z"/>
    <path class="cls-1" d="M247.08,34.87c-1.03,0-1.91-.1-2.65-.29-.74-.19-1.35-.52-1.82-.97-.47-.45-.82-1.04-1.05-1.77-.23-.73-.34-1.63-.34-2.7v-6.9h-2.01v-3.92h2.01v-3.71h4.76v3.71h3.74v3.92h-3.74v6.15c0,.93.15,1.59.45,1.98.3.39.88.59,1.75.59.62,0,1.23-.03,1.85-.09v3.86c-.39.04-.8.08-1.23.11-.43.03-1,.05-1.7.05Z"/>
    <path class="cls-1" d="M260.51,35.08c-1.15,0-2.23-.17-3.24-.51s-1.89-.86-2.66-1.56c-.76-.7-1.36-1.58-1.79-2.64-.43-1.06-.65-2.3-.65-3.72v-.62c0-1.34.22-2.51.65-3.52.43-1.01,1.03-1.85,1.79-2.53s1.65-1.19,2.66-1.54,2.09-.53,3.24-.53,2.23.18,3.24.53,1.89.86,2.66,1.54c.76.68,1.36,1.52,1.79,2.53.43,1.01.65,2.18.65,3.52v.62c0,1.4-.22,2.63-.65,3.69-.43,1.06-1.03,1.94-1.79,2.64-.76.7-1.65,1.23-2.66,1.58-1.01.35-2.09.53-3.24.53ZM260.51,31.16c1.11,0,1.97-.4,2.56-1.21s.9-1.91.9-3.3v-.62c0-1.24-.3-2.25-.9-3.03-.6-.78-1.45-1.17-2.56-1.17s-1.97.39-2.56,1.17c-.6.78-.9,1.79-.9,3.03v.62c0,1.43.3,2.54.9,3.33.6.79,1.45,1.18,2.56,1.18Z"/>
    <path class="cls-1" d="M271.63,18.31h4.39v2.22c.12-.27.31-.56.57-.86.26-.31.56-.6.91-.86.35-.27.75-.48,1.19-.65.44-.16.92-.25,1.44-.25.35,0,.63.02.83.06.21.04.39.08.56.12v4.08c-.1-.06-.34-.13-.71-.22-.37-.08-.8-.12-1.3-.12-1.09,0-1.88.32-2.38.96-.49.64-.74,1.41-.74,2.32v9.57h-4.76v-16.37Z"/>
    <path class="cls-1" d="M87.31,40.25h8.8c3.01,0,5.22.65,6.65,1.96,1.43,1.31,2.15,3.11,2.15,5.42s-.71,4.11-2.15,5.42c-1.43,1.31-3.65,1.96-6.65,1.96h-3.24v6.86h-5.56v-21.62ZM95.49,50.44c1.42,0,2.42-.24,3-.71.58-.47.86-1.17.86-2.1s-.29-1.63-.86-2.1c-.58-.47-1.58-.71-3-.71h-2.63v5.62h2.63Z"/>
    <path class="cls-1" d="M112.32,62.27c-.88,0-1.67-.13-2.36-.4-.69-.27-1.27-.63-1.75-1.1s-.83-1.01-1.08-1.64c-.25-.63-.37-1.31-.37-2.05,0-1.63.5-2.87,1.5-3.74,1-.86,2.51-1.3,4.52-1.3h4.66v-.68c0-.99-.24-1.67-.71-2.05-.47-.38-1.12-.57-1.94-.57s-1.36.12-1.73.37c-.37.25-.58.64-.62,1.17h-4.76c.04-.74.23-1.43.56-2.05.33-.63.8-1.17,1.41-1.64.61-.46,1.35-.83,2.24-1.1.88-.27,1.9-.4,3.06-.4,1.07,0,2.05.12,2.95.35.9.24,1.66.62,2.3,1.14.64.53,1.13,1.2,1.48,2.04.35.83.53,1.85.53,3.04v6.02c0,.86.02,1.62.06,2.27.04.65.1,1.28.18,1.9h-4.51c-.04-.35-.08-.66-.11-.93s-.05-.6-.05-.99c-.49.66-1.18,1.21-2.05,1.65s-2.01.66-3.41.66ZM113.86,58.93c1.01,0,1.86-.29,2.55-.86.69-.58,1.03-1.37,1.03-2.38v-.68h-3.74c-.7,0-1.22.19-1.56.56-.34.37-.51.8-.51,1.3,0,.6.17,1.09.51,1.48.34.39.91.59,1.71.59Z"/>
    <path class="cls-1" d="M125.44,45.5h4.39v2.22c.12-.27.31-.56.57-.86.26-.31.56-.6.91-.86.35-.27.75-.48,1.19-.65.44-.16.92-.25,1.44-.25.35,0,.63.02.83.06.21.04.39.08.56.12v4.08c-.1-.06-.34-.13-.71-.22-.37-.08-.8-.12-1.3-.12-1.09,0-1.88.32-2.38.96-.49.64-.74,1.41-.74,2.32v9.57h-4.76v-16.37Z"/>
    <path class="cls-1" d="M145.36,62.05c-1.03,0-1.91-.1-2.65-.29-.74-.19-1.35-.52-1.82-.97-.47-.45-.82-1.04-1.05-1.77-.23-.73-.34-1.63-.34-2.7v-6.9h-2.01v-3.92h2.01v-3.71h4.76v3.71h3.74v3.92h-3.74v6.15c0,.93.15,1.59.45,1.98.3.39.88.59,1.75.59.62,0,1.23-.03,1.85-.09v3.86c-.39.04-.8.08-1.23.11-.43.03-1,.05-1.7.05Z"/>
    <path class="cls-1" d="M158.18,62.27c-1.34,0-2.49-.14-3.44-.42-.96-.28-1.75-.66-2.36-1.14s-1.08-1.05-1.39-1.7-.48-1.34-.53-2.08h4.76c.12.47.39.88.8,1.2.41.33,1.13.49,2.16.49s1.81-.14,2.27-.43.69-.67.69-1.14c0-.19-.05-.36-.15-.51s-.29-.3-.57-.43c-.28-.13-.65-.26-1.13-.39-.47-.12-1.08-.25-1.82-.37-.91-.14-1.76-.33-2.56-.56-.8-.23-1.5-.53-2.08-.91-.59-.38-1.05-.87-1.39-1.47-.34-.6-.51-1.35-.51-2.25,0-.72.17-1.39.49-2.01.33-.62.81-1.15,1.44-1.61.63-.45,1.39-.81,2.29-1.07.9-.26,1.91-.39,3.04-.39,1.28,0,2.35.15,3.23.46s1.59.72,2.15,1.22c.56.5.97,1.08,1.23,1.71.27.64.43,1.29.49,1.95h-4.76c-.12-.53-.39-.95-.8-1.25-.41-.3-.93-.45-1.54-.45-.95,0-1.6.14-1.96.43-.36.29-.54.63-.54,1.02,0,.43.29.77.86,1,.58.24,1.49.44,2.75.6.88.12,1.73.3,2.53.52.8.23,1.51.54,2.12.94.61.4,1.09.91,1.44,1.51.35.61.53,1.34.53,2.21,0,1.56-.65,2.84-1.96,3.81-1.31.98-3.23,1.47-5.76,1.47Z"/>
  </g>
  <g>
    <polygon class="cls-2" points="5.38 46.64 2.24 54.63 17.29 69.68 17.3 69.69 21.44 66.22 24.75 42.14 5.38 46.64"/>
    <polygon class="cls-2" points="21.44 66.22 24.87 74.1 46.16 74.1 46.64 68.72 31.95 49.35 21.44 66.22"/>
    <polygon class="cls-2" points="46.64 68.72 54.63 71.86 69.69 56.8 66.22 52.66 42.14 49.35 46.64 68.72"/>
    <polygon class="cls-2" points="68.71 27.45 71.86 19.47 56.8 4.41 52.65 7.87 49.35 31.95 68.71 27.45"/>
    <polygon class="cls-2" points="74.1 27.94 68.71 27.45 49.35 42.14 66.22 52.66 74.1 49.23 74.1 27.94"/>
    <polygon class="cls-2" points="52.65 7.87 49.23 0 27.93 0 27.45 5.38 42.14 24.75 52.65 7.87"/>
    <polygon class="cls-2" points="27.45 5.38 19.47 2.24 4.41 17.3 7.87 21.44 31.95 24.75 27.45 5.38"/>
    <polygon class="cls-2" points="7.87 21.44 0 24.87 0 46.16 5.38 46.64 24.75 31.95 7.87 21.44"/>
  </g>
</svg>